<svg width="372" height="111" viewBox="0 0 372 111" fill="none" xmlns="http://www.w3.org/2000/svg">
<path d="M124.482 89.671H102.772V46.0799C102.599 42.6934 100.709 40.9599 97.09 40.8794H85.4747V89.671H63.7644V40.8794H51.6443C48.1911 40.8794 46.5537 42.5324 46.7199 45.8446V89.6771H24.7573V36.7376C24.7573 34.3788 25.1758 32.212 26.0191 30.2432C26.8624 28.2745 28.0381 26.5781 29.5524 25.1604C31.1528 23.6621 32.9994 22.523 35.1046 21.7305C37.2898 20.8638 39.6473 20.4304 42.1772 20.4304H107.185C109.875 20.4304 112.276 20.8638 114.381 21.7305C116.566 22.5973 118.376 23.7798 119.81 25.2718C121.324 26.6896 122.463 28.423 123.22 30.4723C124.063 32.441 124.482 34.5274 124.482 36.7314V89.6586V89.671Z" fill="white"/>
<path d="M146.321 89.671C134.287 89.671 128.274 84.5943 128.274 74.4286V0H150.107V20.4366H167.404V40.8732H150.107V65.2102C150.107 67.8847 151.203 69.2282 153.388 69.2282H167.275V89.6648H146.321V89.671Z" fill="white"/>
<path fill-rule="evenodd" clip-rule="evenodd" d="M209.686 69.2282C213.471 69.2282 215.367 67.4947 215.367 64.0277V46.0737C215.367 42.6067 213.557 40.8732 209.938 40.8732H191.884V69.2282H209.679H209.686ZM237.207 73.1285C237.207 84.1547 231.402 89.671 219.787 89.671H191.761V110.467H170.051V20.4366H219.787C231.396 20.4366 237.207 25.7919 237.207 36.5024V73.1285Z" fill="white"/>
<path fill-rule="evenodd" clip-rule="evenodd" d="M7.28191 31.0357C7.28191 29.005 9.03621 27.3644 11.2029 27.3644C13.3697 27.3644 15.124 29.0112 15.124 31.0357C15.124 33.0601 13.3697 34.7069 11.2029 34.7069C9.03621 34.7069 7.28191 33.0601 7.28191 31.0357ZM0 31.0357C0 25.247 5.0167 20.548 11.2029 20.548C17.3892 20.548 22.4059 25.2408 22.4059 31.0357C22.4059 36.8305 17.3892 41.5233 11.2029 41.5233C5.0167 41.5233 0 36.8305 0 31.0357Z" fill="#5BB1DC"/>
<path d="M249.05 20.3747H248.182V89.2871H249.05V20.3747Z" fill="white"/>
<path d="M268.163 23.9345C269.289 24.6279 270.157 25.6185 270.76 26.9062C271.363 28.194 271.665 29.7108 271.665 31.4566C271.665 33.2025 271.363 34.7131 270.76 35.9947C270.157 37.2762 269.295 38.2544 268.163 38.9292C267.036 39.604 265.7 39.9445 264.155 39.9445H259.754V22.8882H264.155C265.694 22.8882 267.03 23.2349 268.163 23.9283V23.9345ZM268.335 36.3661C269.295 35.2022 269.775 33.5616 269.775 31.4566C269.775 29.3517 269.289 27.6801 268.323 26.4914C267.356 25.3027 265.965 24.7022 264.155 24.7022H261.601V38.112H264.155C265.977 38.112 267.375 37.53 268.335 36.3599V36.3661Z" fill="white"/>
<path d="M275.531 22.8944V39.9507H273.684V22.8944H275.531Z" fill="white"/>
<path d="M288.974 27.8411C288.58 26.8443 288.014 26.0766 287.269 25.5256C286.524 24.9808 285.662 24.7084 284.671 24.7084C283.68 24.7084 282.794 24.9808 282.006 25.5256C281.218 26.0704 280.59 26.8567 280.141 27.8782C279.685 28.8997 279.464 30.076 279.464 31.4133C279.464 32.7506 279.692 33.9269 280.141 34.936C280.596 35.9451 281.218 36.7252 282.006 37.27C282.794 37.8148 283.687 38.0872 284.671 38.0872C286.05 38.0872 287.183 37.592 288.075 36.5952C288.968 35.5984 289.485 34.255 289.639 32.5586H284V30.7447H291.602V32.4596C291.492 33.865 291.128 35.1465 290.507 36.3166C289.885 37.4805 289.066 38.403 288.051 39.084C287.035 39.7588 285.909 40.0993 284.665 40.0993C283.354 40.0993 282.16 39.7279 281.077 38.9849C279.993 38.242 279.138 37.2081 278.51 35.8894C277.882 34.5707 277.568 33.0725 277.568 31.4133C277.568 29.7541 277.882 28.2497 278.51 26.9248C279.138 25.5937 279.993 24.5598 281.077 23.8169C282.16 23.074 283.354 22.7025 284.665 22.7025C286.167 22.7025 287.497 23.1545 288.648 24.046C289.805 24.9437 290.642 26.2066 291.172 27.8411H288.962H288.974Z" fill="white"/>
<path d="M295.487 22.8944V39.9507H293.64V22.8944H295.487Z" fill="white"/>
<path d="M306.917 22.8944V24.7084H303.064V39.9569H301.217V24.7084H297.345V22.8944H306.917Z" fill="white"/>
<path d="M317.141 36.1618H310.98L309.847 39.9569H307.902L313.011 22.9997H315.141L320.231 39.9569H318.286L317.154 36.1618H317.141ZM316.612 34.3479L314.058 25.7361L311.503 34.3479H316.612Z" fill="white"/>
<path d="M323.888 38.143H328.837V39.9569H322.047V22.9006H323.894V38.1492L323.888 38.143Z" fill="white"/>
<path d="M268.242 55.7193C268.667 56.1279 269.006 56.6356 269.258 57.2361C269.51 57.8428 269.634 58.4867 269.634 59.1677C269.634 60.0345 269.449 60.8145 269.086 61.5017C268.723 62.1951 268.193 62.7399 267.492 63.1424C266.796 63.5448 265.971 63.7429 265.029 63.7429H259.76V46.6866H264.826C265.786 46.6866 266.605 46.8785 267.282 47.2623C267.959 47.6462 268.464 48.1662 268.803 48.8163C269.141 49.4664 269.307 50.2031 269.307 51.0203C269.307 52.0294 269.08 52.8652 268.63 53.5277C268.181 54.1901 267.578 54.6668 266.839 54.9578C267.35 55.0569 267.824 55.3107 268.249 55.7193H268.242ZM261.601 54.0539H264.703C265.571 54.0539 266.236 53.8063 266.71 53.3172C267.184 52.8281 267.418 52.1533 267.418 51.2865C267.418 50.4198 267.184 49.745 266.71 49.2559C266.236 48.7668 265.553 48.5191 264.66 48.5191H261.601V54.0477V54.0539ZM267.011 61.1241C267.522 60.604 267.781 59.8735 267.781 58.9448C267.781 58.0162 267.51 57.2547 266.968 56.7037C266.427 56.1589 265.706 55.8865 264.802 55.8865H261.601V61.9041H264.863C265.78 61.9041 266.5 61.6441 267.011 61.1241Z" fill="white"/>
<path d="M273.585 46.6866V57.4776C273.585 58.9944 273.893 60.1211 274.509 60.8579C275.124 61.5946 275.98 61.9599 277.076 61.9599C278.171 61.9599 279.002 61.5946 279.618 60.8579C280.233 60.1211 280.541 59.0005 280.541 57.4776V46.6866H282.388V57.4528C282.388 58.8705 282.154 60.0654 281.68 61.0374C281.206 62.0094 280.566 62.7276 279.765 63.2043C278.959 63.6748 278.06 63.9162 277.057 63.9162C276.054 63.9162 275.155 63.681 274.349 63.2043C273.542 62.7337 272.908 62.0094 272.441 61.0374C271.973 60.0654 271.739 58.8705 271.739 57.4528V46.6866H273.585Z" fill="white"/>
<path d="M287.041 63.3157C286.303 62.9133 285.724 62.3623 285.305 61.6503C284.887 60.9384 284.671 60.1211 284.659 59.1925H286.629C286.697 59.9911 286.967 60.666 287.448 61.2108C287.928 61.7556 288.629 62.028 289.547 62.028C290.464 62.028 291.116 61.7618 291.627 61.2355C292.132 60.7031 292.39 60.0221 292.39 59.1925C292.39 58.5424 292.243 58.01 291.947 57.6014C291.652 57.1928 291.276 56.8832 290.833 56.6727C290.384 56.4622 289.787 56.2332 289.03 55.9855C288.094 55.6946 287.349 55.3974 286.789 55.1064C286.229 54.8154 285.749 54.3511 285.349 53.7258C284.948 53.1005 284.752 52.2523 284.752 51.1937C284.752 50.265 284.948 49.4416 285.342 48.7234C285.736 48.0053 286.284 47.4481 286.992 47.0581C287.7 46.668 288.519 46.4699 289.436 46.4699C290.759 46.4699 291.843 46.8723 292.692 47.671C293.535 48.4696 294.015 49.5283 294.12 50.8532H292.095C292.027 50.2031 291.744 49.6273 291.246 49.1259C290.747 48.6306 290.082 48.3767 289.257 48.3767C288.488 48.3767 287.86 48.6182 287.374 49.1011C286.887 49.584 286.641 50.2526 286.641 51.1194C286.641 51.7385 286.789 52.2461 287.078 52.6362C287.368 53.0262 287.725 53.3234 288.155 53.5277C288.58 53.732 289.177 53.9673 289.953 54.2273C290.888 54.5368 291.633 54.8402 292.206 55.1436C292.772 55.4469 293.258 55.9112 293.665 56.5365C294.071 57.1618 294.274 58.0162 294.274 59.0934C294.274 59.923 294.089 60.7093 293.726 61.4398C293.363 62.1704 292.821 62.7709 292.101 63.229C291.387 63.6872 290.538 63.9162 289.565 63.9162C288.593 63.9162 287.798 63.7181 287.06 63.3157H287.041Z" fill="white"/>
<path d="M298.404 46.6866V63.7429H296.558V46.6866H298.404Z" fill="white"/>
<path d="M312.254 63.7429H310.407L302.984 50.1598V63.7429H301.137V46.6618H302.984L310.407 60.2202V46.6618H312.254V63.7429Z" fill="white"/>
<path d="M316.834 48.5006V54.2025H321.986V56.0351H316.834V61.9104H322.589V63.7429H314.987V46.6618H322.589V48.4944H316.834V48.5006Z" fill="white"/>
<path d="M326.959 63.3157C326.221 62.9133 325.642 62.3623 325.224 61.6503C324.805 60.9384 324.59 60.1211 324.577 59.1925H326.547C326.615 59.9911 326.886 60.666 327.366 61.2108C327.846 61.7556 328.548 62.028 329.465 62.028C330.382 62.028 331.034 61.7618 331.545 61.2355C332.05 60.7031 332.309 60.0221 332.309 59.1925C332.309 58.5424 332.161 58.01 331.865 57.6014C331.57 57.1928 331.194 56.8832 330.751 56.6727C330.302 56.4622 329.705 56.2332 328.948 55.9855C328.012 55.6946 327.267 55.3974 326.707 55.1064C326.147 54.8154 325.667 54.3511 325.267 53.7258C324.867 53.1005 324.67 52.2523 324.67 51.1937C324.67 50.265 324.867 49.4416 325.261 48.7234C325.654 48.0053 326.202 47.4481 326.91 47.0581C327.618 46.668 328.437 46.4699 329.354 46.4699C330.677 46.4699 331.761 46.8723 332.61 47.671C333.453 48.4696 333.934 49.5283 334.038 50.8532H332.013C331.945 50.2031 331.662 49.6273 331.164 49.1259C330.665 48.6306 330 48.3767 329.175 48.3767C328.406 48.3767 327.778 48.6182 327.292 49.1011C326.806 49.584 326.559 50.2526 326.559 51.1194C326.559 51.7385 326.707 52.2461 326.996 52.6362C327.286 53.0262 327.643 53.3234 328.074 53.5277C328.498 53.732 329.095 53.9673 329.871 54.2273C330.807 54.5368 331.551 54.8402 332.124 55.1436C332.69 55.4469 333.176 55.9112 333.583 56.5365C333.989 57.1618 334.192 58.0162 334.192 59.0934C334.192 59.923 334.007 60.7093 333.644 61.4398C333.281 62.1704 332.739 62.7709 332.019 63.229C331.305 63.6872 330.456 63.9162 329.483 63.9162C328.511 63.9162 327.717 63.7181 326.978 63.3157H326.959Z" fill="white"/>
<path d="M338.458 63.3157C337.719 62.9133 337.141 62.3623 336.722 61.6503C336.303 60.9384 336.088 60.1211 336.076 59.1925H338.045C338.113 59.9911 338.384 60.666 338.864 61.2108C339.344 61.7556 340.046 62.028 340.963 62.028C341.88 62.028 342.533 61.7618 343.044 61.2355C343.548 60.7031 343.807 60.0221 343.807 59.1925C343.807 58.5424 343.659 58.01 343.364 57.6014C343.068 57.1928 342.693 56.8832 342.25 56.6727C341.8 56.4622 341.203 56.2332 340.446 55.9855C339.51 55.6946 338.766 55.3974 338.205 55.1064C337.645 54.8154 337.165 54.3511 336.765 53.7258C336.365 53.1005 336.168 52.2523 336.168 51.1937C336.168 50.265 336.365 49.4416 336.759 48.7234C337.153 48.0053 337.701 47.4481 338.409 47.0581C339.117 46.668 339.935 46.4699 340.852 46.4699C342.176 46.4699 343.259 46.8723 344.109 47.671C344.952 48.4696 345.432 49.5283 345.537 50.8532H343.511C343.444 50.2031 343.161 49.6273 342.662 49.1259C342.163 48.6306 341.499 48.3767 340.674 48.3767C339.904 48.3767 339.277 48.6182 338.79 49.1011C338.304 49.584 338.058 50.2526 338.058 51.1194C338.058 51.7385 338.205 52.2461 338.495 52.6362C338.784 53.0262 339.141 53.3234 339.572 53.5277C339.997 53.732 340.594 53.9673 341.369 54.2273C342.305 54.5368 343.05 54.8402 343.622 55.1436C344.189 55.4469 344.675 55.9112 345.081 56.5365C345.487 57.1618 345.691 58.0162 345.691 59.0934C345.691 59.923 345.506 60.7093 345.143 61.4398C344.78 62.1704 344.238 62.7709 343.518 63.229C342.804 63.6872 341.954 63.9162 340.982 63.9162C340.009 63.9162 339.215 63.7181 338.476 63.3157H338.458Z" fill="white"/>
<path d="M268.113 83.7461H261.952L260.819 87.5412H258.874L263.983 70.584H266.113L271.203 87.5412H269.258L268.126 83.7461H268.113ZM267.584 81.9321L265.029 73.3204L262.475 81.9321H267.584Z" fill="white"/>
<path d="M274.995 87.1079C274.256 86.7054 273.678 86.1544 273.259 85.4425C272.841 84.7305 272.625 83.9133 272.613 82.9846H274.583C274.65 83.7833 274.921 84.4581 275.401 85.0029C275.881 85.5477 276.583 85.8201 277.5 85.8201C278.418 85.8201 279.07 85.5539 279.581 85.0277C280.086 84.4952 280.344 83.8142 280.344 82.9846C280.344 82.3346 280.196 81.8021 279.901 81.3935C279.606 80.9849 279.23 80.6754 278.787 80.4649C278.337 80.2544 277.74 80.0253 276.983 79.7777C276.048 79.4867 275.303 79.1895 274.743 78.8986C274.183 78.6076 273.702 78.1432 273.302 77.5179C272.902 76.8927 272.705 76.0445 272.705 74.9858C272.705 74.0572 272.902 73.2338 273.296 72.5156C273.69 71.7974 274.238 71.2402 274.946 70.8502C275.654 70.4602 276.472 70.2621 277.39 70.2621C278.713 70.2621 279.796 70.6645 280.646 71.4631C281.489 72.2618 281.969 73.3204 282.074 74.6453H280.049C279.981 73.9953 279.698 73.4195 279.199 72.918C278.701 72.4227 278.036 72.1689 277.211 72.1689C276.442 72.1689 275.814 72.4103 275.327 72.8932C274.841 73.3761 274.595 74.0448 274.595 74.9115C274.595 75.5306 274.743 76.0383 275.032 76.4283C275.321 76.8184 275.678 77.1155 276.109 77.3198C276.534 77.5241 277.131 77.7594 277.907 78.0194C278.842 78.329 279.587 78.6323 280.16 78.9357C280.726 79.2391 281.212 79.7034 281.618 80.3287C282.025 80.954 282.228 81.8083 282.228 82.8856C282.228 83.7152 282.043 84.5014 281.68 85.232C281.317 85.9625 280.775 86.5631 280.055 87.0212C279.341 87.4793 278.491 87.7084 277.519 87.7084C276.546 87.7084 275.752 87.5103 275.014 87.1079H274.995Z" fill="white"/>
<path d="M286.493 87.1079C285.755 86.7054 285.176 86.1544 284.758 85.4425C284.339 84.7305 284.124 83.9133 284.111 82.9846H286.081C286.149 83.7833 286.42 84.4581 286.9 85.0029C287.38 85.5477 288.082 85.8201 288.999 85.8201C289.916 85.8201 290.568 85.5539 291.079 85.0277C291.584 84.4952 291.843 83.8142 291.843 82.9846C291.843 82.3346 291.695 81.8021 291.399 81.3935C291.104 80.9849 290.728 80.6754 290.285 80.4649C289.836 80.2544 289.239 80.0253 288.482 79.7777C287.546 79.4867 286.801 79.1895 286.241 78.8986C285.681 78.6076 285.201 78.1432 284.801 77.5179C284.401 76.8927 284.204 76.0445 284.204 74.9858C284.204 74.0572 284.401 73.2338 284.795 72.5156C285.189 71.7974 285.736 71.2402 286.444 70.8502C287.152 70.4602 287.971 70.2621 288.888 70.2621C290.211 70.2621 291.295 70.6645 292.144 71.4631C292.987 72.2618 293.468 73.3204 293.572 74.6453H291.547C291.479 73.9953 291.196 73.4195 290.698 72.918C290.199 72.4227 289.534 72.1689 288.709 72.1689C287.94 72.1689 287.312 72.4103 286.826 72.8932C286.34 73.3761 286.093 74.0448 286.093 74.9115C286.093 75.5306 286.241 76.0383 286.53 76.4283C286.82 76.8184 287.177 77.1155 287.608 77.3198C288.032 77.5241 288.629 77.7594 289.405 78.0194C290.341 78.329 291.085 78.6323 291.658 78.9357C292.224 79.2391 292.711 79.7034 293.117 80.3287C293.523 80.954 293.726 81.8083 293.726 82.8856C293.726 83.7152 293.541 84.5014 293.178 85.232C292.815 85.9625 292.273 86.5631 291.553 87.0212C290.839 87.4793 289.99 87.7084 289.017 87.7084C288.045 87.7084 287.251 87.5103 286.512 87.1079H286.493Z" fill="white"/>
<path d="M297.813 70.4787V81.2697C297.813 82.7865 298.121 83.9133 298.737 84.65C299.352 85.3867 300.208 85.752 301.303 85.752C302.399 85.752 303.23 85.3867 303.846 84.65C304.461 83.9133 304.769 82.7927 304.769 81.2697V70.4787H306.616V81.2449C306.616 82.6627 306.382 83.8576 305.908 84.8296C305.434 85.8015 304.794 86.5197 303.993 86.9964C303.187 87.4669 302.288 87.7084 301.285 87.7084C300.282 87.7084 299.383 87.4731 298.577 86.9964C297.77 86.5259 297.136 85.8015 296.668 84.8296C296.201 83.8576 295.967 82.6627 295.967 81.2449V70.4787H297.813Z" fill="white"/>
<path d="M316.735 87.535L313.368 80.5577H311.14V87.535H309.293V70.4787H313.854C314.919 70.4787 315.824 70.7016 316.563 71.1412C317.301 71.5807 317.849 72.1751 318.212 72.9304C318.576 73.6795 318.76 74.54 318.76 75.4997C318.76 76.676 318.477 77.7099 317.917 78.6076C317.357 79.5053 316.514 80.0996 315.393 80.3968L318.939 87.5412H316.729L316.735 87.535ZM311.14 78.7747H313.854C314.852 78.7747 315.603 78.4776 316.107 77.8832C316.606 77.2889 316.858 76.4902 316.858 75.4997C316.858 74.5091 316.612 73.7043 316.12 73.1471C315.627 72.5899 314.87 72.3175 313.861 72.3175H311.146V78.7809L311.14 78.7747Z" fill="white"/>
<path d="M329.569 83.7461H323.408L322.275 87.5412H320.33L325.439 70.584H327.569L332.659 87.5412H330.714L329.582 83.7461H329.569ZM329.04 81.9321L326.485 73.3204L323.931 81.9321H329.04Z" fill="white"/>
<path d="M345.586 87.535H343.739L336.316 73.9519V87.535H334.469V70.454H336.316L343.739 84.0123V70.454H345.586V87.535Z" fill="white"/>
<path d="M348.565 74.5091C349.187 73.178 350.036 72.1379 351.107 71.3888C352.184 70.6397 353.372 70.2621 354.684 70.2621C356.222 70.2621 357.57 70.714 358.722 71.6055C359.873 72.5032 360.71 73.7786 361.233 75.4254H359.023C358.629 74.3977 358.069 73.6052 357.33 73.0542C356.592 72.497 355.712 72.2246 354.684 72.2246C353.656 72.2246 352.812 72.5032 352.031 73.0542C351.249 73.6114 350.633 74.3977 350.184 75.413C349.735 76.4283 349.513 77.6294 349.513 78.9976C349.513 80.3658 349.735 81.5359 350.184 82.5575C350.627 83.579 351.243 84.3652 352.031 84.9162C352.812 85.4734 353.699 85.7458 354.684 85.7458C355.668 85.7458 356.592 85.4734 357.33 84.9286C358.069 84.3838 358.629 83.5975 359.023 82.5698H361.233C360.704 84.2043 359.866 85.461 358.722 86.3526C357.57 87.2441 356.229 87.6836 354.684 87.6836C353.372 87.6836 352.178 87.3122 351.107 86.5692C350.03 85.8263 349.187 84.7924 348.565 83.4737C347.943 82.155 347.629 80.6568 347.629 78.9976C347.629 77.3384 347.937 75.834 348.565 74.5091Z" fill="white"/>
<path d="M365.419 72.2927V77.9947H370.571V79.8272H365.419V85.7025H371.174V87.535H363.572V70.454H371.174V72.2865H365.419V72.2927Z" fill="white"/>
</svg>
